# xmcd
#
# Track frame offsets: 
#        150
#        12415
#        49702
#        74430
#        89732
#        105537
#        138442
#        155500
#        172682
#        177707
#        193365
#        218157
#
# Disc length: 3277 seconds
#
# Revision: 1
# Processed by: cddbd v1.5.2PL0 Copyright (c) Steve Scherf et al.
# Submitted via: ExactAudioCopy v0.99pb3
#
DISCID=af0ccb0c
DTITLE=Stephan Oliva - Jade Visions
DYEAR=1996
DGENRE=Jazz
TTITLE0=Jade Visions
TTITLE1=Someday My Prince Will Come
TTITLE2=Spartacus Love Theme - N.Y.C's No Lark - Emily
TTITLE3=T.T.T.T
TTITLE4=Blue Serge
TTITLE5=Nardis - Hullo Bolinas
TTITLE6=My Man's Gone Now
TTITLE7=The Peacocks
TTITLE8=Five
TTITLE9=Interplay - Loose Bloose
TTITLE10=Do I Not Deal - Peace Piece
TTITLE11=Epilogue - Modulations - Re: Person I know - Jade Visions
EXTD=
EXTT0=
EXTT1=
EXTT2=
EXTT3=
EXTT4=
EXTT5=
EXTT6=
EXTT7=
EXTT8=
EXTT9=
EXTT10=
EXTT11=
PLAYORDER=
